<?xml version="1.0" encoding="UTF-8"?>
<svg width="1200" height="630" viewBox="0 0 1200 630" xmlns="http://www.w3.org/2000/svg" role="img" aria-label="StayNomadic — Plan Less. Live More.">
  <defs>
    <linearGradient id="t" x1="0" y1="0" x2="1" y2="1">
      <stop offset="0%" stop-color="#00C6A7"/>
      <stop offset="100%" stop-color="#009F9D"/>
    </linearGradient>
  </defs>
  <rect width="1200" height="630" fill="#0F1115"/>
  <circle cx="150" cy="120" r="120" fill="url(#t)" opacity="0.18"/>
  <circle cx="1080" cy="560" r="160" fill="url(#t)" opacity="0.16"/>
  <g opacity="0.08" stroke="#E6F2F0">
    <path d="M0 90H1200M0 180H1200M0 270H1200M0 360H1200M0 450H1200M0 540H1200"/>
    <path d="M100 0V630M200 0V630M300 0V630M400 0V630M500 0V630M600 0V630M700 0V630M800 0V630M900 0V630M1000 0V630M1100 0V630"/>
  </g>
  <g fill="#E6F2F0" font-family="Inter, system-ui, -apple-system, Segoe UI, Roboto, Helvetica, Arial, sans-serif">
    <text x="80" y="320" font-size="64" font-weight="700">StayNomadic</text>
    <text x="80" y="370" font-size="28">Plan Less. Live More.</text>
  </g>
</svg>
